<svg width="1991" height="1901" viewBox="0 0 1991 1901" fill="none" xmlns="http://www.w3.org/2000/svg">
<g filter="url(#filter0_d_84_6)">
<rect x="4.5" y="0.5" width="1982" height="1892" stroke="black" shape-rendering="crispEdges"/>
<rect width="100%" height="100%" fill="#0a1a2f"/>
<path d="M532.983 1159.11C535.112 1159.11 536.206 1158.07 536.206 1156.04V1120.21H575.701C577.828 1120.21 578.944 1119.16 578.944 1117.13V1101.81C578.944 1099.78 577.828 1098.73 575.701 1098.73H536.206V1066.44H582.476C584.604 1066.44 585.699 1065.29 585.699 1063.34V1046.81C585.699 1044.8 584.604 1043.74 582.476 1043.74H511.976C509.849 1043.74 508.754 1044.8 508.754 1046.81V1156.04C508.754 1158.07 509.849 1159.11 511.976 1159.11H532.983Z" fill="white"/>
<path d="M699.039 1159.11C701.167 1159.11 702.261 1158.07 702.261 1156.04V1139.51C702.261 1137.56 701.167 1136.44 699.039 1136.44H662.766V1046.81C662.766 1044.8 661.672 1043.74 659.544 1043.74H638.537C636.41 1043.74 635.314 1044.8 635.314 1046.81V1156.04C635.314 1158.07 636.41 1159.11 638.537 1159.11H699.039Z" fill="white"/>
<path d="M801.85 1043.74C799.64 1039.38 796.025 1039.38 793.897 1043.74L740.005 1155.42C738.972 1157.61 740.005 1159.11 742.36 1159.11H765.578C767.374 1159.11 768.634 1158.28 769.275 1156.7L774.625 1143.95H821.04L826.389 1156.7C827.03 1158.28 828.29 1159.11 830.087 1159.11H853.305C855.742 1159.11 856.692 1157.61 855.742 1155.42L801.85 1043.74ZM797.842 1088.2L812.695 1123.74H783.032L797.842 1088.2Z" fill="white"/>
<path d="M938.876 1162.05C960.977 1162.05 983.322 1153.1 983.322 1128.09C983.322 1107.22 967.107 1098.12 952.405 1091.22C938.317 1084.75 926.915 1080.55 926.915 1072.13C926.915 1065.52 933.269 1063.2 941.535 1063.2C949.016 1063.2 958.147 1064.99 966.241 1068.01C968.224 1068.68 969.63 1067.93 970.334 1066.12L975.453 1050.43C976.156 1048.55 975.534 1047.19 973.488 1046.52C962.627 1042.99 950.188 1040.83 940.751 1040.83C919.271 1040.83 898.984 1050.21 898.984 1074.01C898.984 1092.19 911.871 1101.2 926.212 1108.41C940.751 1115.69 955.317 1120.42 955.317 1129.3C955.317 1136.36 948.62 1139.59 938.705 1139.59C930.214 1139.59 919.19 1137.4 908.257 1133.29C906.301 1132.59 904.789 1133.04 904.087 1135L898.179 1151.52C897.394 1153.48 898.117 1154.76 900.161 1155.51C914.954 1160.24 927.14 1162.05 938.876 1162.05Z" fill="white"/>
<path d="M1058.26 1159.11C1060.39 1159.11 1061.49 1158.07 1061.49 1156.04V1120.8H1108.46V1156.04C1108.46 1158.07 1109.58 1159.11 1111.7 1159.11H1132.77C1134.81 1159.11 1136.01 1158.07 1136.01 1156.04V1046.81C1136.01 1044.8 1134.81 1043.74 1132.77 1043.74H1111.7C1109.58 1043.74 1108.46 1044.8 1108.46 1046.81V1098.12H1061.49V1046.81C1061.49 1044.8 1060.39 1043.74 1058.26 1043.74H1037.26C1035.12 1043.74 1034.03 1044.8 1034.03 1046.81V1156.04C1034.03 1158.07 1035.12 1159.11 1037.26 1159.11H1058.26Z" fill="white"/>
<path d="M1251.94 1162.05C1273.59 1162.05 1291.35 1154.23 1302.69 1141.39C1303.95 1139.96 1303.56 1138.68 1301.82 1137.4L1284.51 1126.23C1282.86 1125.08 1281.43 1125.32 1280.12 1126.81C1273.5 1133.8 1263.67 1138.07 1252.02 1138.07C1230.31 1138.07 1214.79 1123.74 1214.79 1101.44C1214.79 1079.06 1230.31 1064.78 1251.94 1064.78C1263.67 1064.78 1273.42 1069.06 1280.12 1076.04C1281.43 1077.54 1282.95 1077.78 1284.51 1076.65L1301.82 1065.37C1303.48 1064.17 1303.79 1062.75 1302.38 1061.25C1290.9 1048.47 1273.26 1040.83 1251.94 1040.83C1214.01 1040.83 1187.27 1064.78 1187.27 1101.44C1187.27 1138.07 1213.93 1162.05 1251.94 1162.05Z" fill="white"/>
<path d="M1405.09 1043.74C1402.88 1039.38 1399.27 1039.38 1397.14 1043.74L1343.25 1155.42C1342.22 1157.61 1343.25 1159.11 1345.6 1159.11H1368.82C1370.62 1159.11 1371.87 1158.28 1372.52 1156.7L1377.87 1143.95H1424.28L1429.63 1156.7C1430.27 1158.28 1431.53 1159.11 1433.33 1159.11H1456.55C1458.98 1159.11 1459.94 1157.61 1458.98 1155.42L1405.09 1043.74ZM1401.09 1088.2L1415.94 1123.74H1386.28L1401.09 1088.2Z" fill="white"/>
<path d="M1579.17 1116.6C1591.67 1110.67 1598.53 1098.5 1598.53 1081.52C1598.53 1060.19 1587.74 1043.74 1554.07 1043.74H1508.98C1506.85 1043.74 1505.76 1044.8 1505.76 1046.81V1156.04C1505.76 1158.07 1506.85 1159.11 1508.98 1159.11H1530.15C1532.2 1159.11 1533.38 1158.07 1533.38 1156.04V1120.66H1551.79L1570.91 1156.79C1571.7 1158.36 1572.79 1159.11 1574.61 1159.11H1598.67C1601.04 1159.11 1602.06 1157.61 1600.96 1155.42L1579.17 1116.6ZM1549.74 1066.44C1557.21 1066.44 1571.14 1066.5 1571.14 1081.76C1571.14 1097.9 1555.72 1097.97 1549.74 1097.97H1533.38V1066.44H1549.74Z" fill="white"/>
<path d="M1692.58 1159.11C1736.49 1159.11 1757.58 1137.49 1757.58 1101.49C1757.58 1064.92 1735.93 1043.74 1692.58 1043.74H1656C1653.87 1043.74 1652.77 1044.8 1652.77 1046.81V1156.04C1652.77 1158.07 1653.87 1159.11 1656 1159.11H1692.58ZM1680.55 1066.44H1692.58C1717.22 1066.44 1730.11 1078.82 1730.11 1101.12C1730.11 1123.44 1717.22 1136.44 1692.58 1136.44H1680.55V1066.44Z" fill="white"/>
<path d="M725.38 1276.28H692.661L685.885 1291.03H676.797L704.724 1232.19H713.4L741.409 1291.03H732.156L725.38 1276.28ZM722.323 1269.57L709.021 1240.78L695.718 1269.57H722.323Z" fill="#2E82DB"/>
<path d="M845.134 1232.19C853.107 1232.19 859.386 1234 863.972 1237.63C868.537 1241.26 870.83 1246.29 870.83 1252.7C870.83 1259.06 868.537 1264.09 863.972 1267.76C859.386 1271.38 853.107 1273.2 845.134 1273.2H829.93V1291.03H821.09V1232.19H845.134ZM844.886 1265.87C850.442 1265.87 854.676 1264.74 857.609 1262.48C860.584 1260.22 862.071 1256.95 862.071 1252.7C862.071 1248.43 860.584 1245.18 857.609 1242.92C854.676 1240.66 850.442 1239.52 844.886 1239.52H829.93V1265.87H844.886Z" fill="#2E82DB"/>
<path d="M979.203 1232.19C987.18 1232.19 993.463 1234 998.042 1237.63C1002.61 1241.26 1004.9 1246.29 1004.9 1252.7C1004.9 1259.06 1002.61 1264.09 998.042 1267.76C993.463 1271.38 987.18 1273.2 979.203 1273.2H964.006V1291.03H955.164V1232.19H979.203ZM978.96 1265.87C984.512 1265.87 988.749 1264.74 991.678 1262.48C994.653 1260.22 996.14 1256.95 996.14 1252.7C996.14 1248.43 994.653 1245.18 991.678 1242.92C988.749 1240.66 984.512 1239.52 978.96 1239.52H964.006V1265.87H978.96Z" fill="#2E82DB"/>
<mask id="mask0_84_6" style="mask-type:luminance" maskUnits="userSpaceOnUse" x="226" y="573" width="738" height="690">
<path d="M226.096 573.263H963.772V1262.32H226.096V573.263Z" fill="white"/>
</mask>
<g mask="url(#mask0_84_6)">
<path fill-rule="evenodd" clip-rule="evenodd" d="M292.361 764.141C292.176 761.38 291.968 758.62 291.968 755.878C291.968 695.558 343.238 646.617 406.425 646.617C409.688 646.617 412.973 646.814 416.237 647.09C442.574 601.539 492.686 573.263 547.321 573.263C575.972 573.263 603.774 580.973 627.901 595.664L629.926 596.946C644.922 590.694 661.075 587.579 677.538 587.579C734.075 587.579 782.265 625.123 794.659 676.353C798.418 676.077 802.261 675.879 806 675.879C868.423 675.879 920.272 721.429 925.743 780.349L927.771 782.005C950.08 800.64 962.97 827.437 962.97 855.912C962.97 909.884 916.802 954.054 860.16 954.054H457.384L445.073 979.564L523.67 982.034L248.033 1262.55L338.817 1063.69L279.678 1059.92L327.27 954.072C271.395 953.261 226.096 909.469 226.096 855.951C226.096 814.917 252.928 778.535 292.361 764.141Z" fill="white"/>
</g>
<path fill-rule="evenodd" clip-rule="evenodd" d="M910.15 801.212C926.113 814.523 936.317 834.182 936.317 855.932C936.317 895.882 901.968 928.634 860.159 928.634H440.094L404.029 1003.74L463.849 1005.65L334.189 1137.69L378.436 1040.75L319.11 1036.9L368.644 928.652H328.902C287.072 928.652 252.742 895.882 252.742 855.952C252.742 822.253 276.972 793.798 309.67 785.536C323.035 791.965 337.371 800.502 350.261 811.526C350.756 812.077 351.211 812.531 351.789 812.906C362.468 822.271 371.991 833.373 378.911 846.585C376.886 849.346 375.647 852.659 375.647 856.326C375.647 865.515 383.435 872.949 392.957 872.949C402.582 872.949 410.37 865.495 410.37 856.326C410.37 847.788 403.533 840.728 394.775 839.802C388.908 828.601 381.513 818.683 373.147 809.967C429.808 796.835 471.616 832.447 506.442 862.006C519.621 873.304 531.932 883.775 544.243 891.012C582.127 913.409 626.579 894.699 647.153 883.4C649.363 884.406 651.965 884.958 654.651 884.958C664.173 884.958 671.982 877.603 671.982 868.434C671.982 859.244 664.173 851.81 654.651 851.81C645.025 851.81 637.259 859.244 637.259 868.434C637.259 868.887 637.259 869.262 637.361 869.715C619.473 879.436 583.118 894.502 553.311 876.873C542.529 870.543 530.714 860.526 518.01 849.602C477.998 815.627 429.436 774.217 358.75 796.716C346.439 786.62 333.074 778.634 320.474 772.404C319.338 767.079 318.76 761.557 318.76 755.859C318.76 709.697 357.985 672.153 406.445 672.153C414.522 672.153 422.33 673.159 429.725 675.17C438.194 686.922 446.663 700.785 453.479 716.303C453.665 716.954 453.975 717.683 454.347 718.236C460.978 733.833 465.998 751.008 467.629 769.267C462.816 772.206 459.739 777.352 459.739 783.131C459.739 792.319 467.546 799.753 477.069 799.753C486.674 799.753 494.462 792.299 494.462 783.131C494.462 776.702 490.619 771.102 484.939 768.341C483.597 753 480.147 738.428 475.313 724.822C497.726 730.343 539.946 748.426 550.151 806.359C545.999 809.376 543.417 814.068 543.417 819.491C543.417 828.563 551.204 836.016 560.726 836.016C570.353 836.016 578.119 828.563 578.119 819.491C578.119 812.511 573.699 806.536 567.358 804.072C553.6 724.644 487.253 709.224 467.815 706.385C459.553 688.481 449.349 672.784 439.454 659.75C460.317 623.388 500.907 598.701 547.362 598.701C571.799 598.701 594.479 605.484 613.524 617.158C617.945 626.05 622.282 637.803 623.542 651.586C605.84 650.008 569.878 650.659 540.256 675.545C538.811 675.17 537.178 674.894 535.547 674.894C526.024 674.894 518.216 682.328 518.216 691.497C518.216 700.666 526.024 708.042 535.547 708.042C545.152 708.042 552.94 700.686 552.94 691.497C552.94 690.117 552.754 688.737 552.465 687.475C578.223 666.158 609.765 666.711 623.542 668.189C623.336 671.029 622.861 673.888 622.282 676.807C614.392 678.384 608.422 685.069 608.422 693.055C608.422 702.244 616.231 709.678 625.836 709.678C635.461 709.678 643.228 702.244 643.228 693.055C643.228 688.934 641.596 685.069 638.911 682.229C640.439 675.072 641.224 668.189 641.307 661.663C641.307 661.386 641.307 661.11 641.307 660.835C641.41 646.617 638.519 633.76 634.573 622.994C647.442 616.665 662.067 613.095 677.558 613.095C726.596 613.095 766.897 649.181 770.739 695.165C754.297 710.762 739.589 734.918 741.614 770.175C737.194 773.192 734.301 778.161 734.301 783.762C734.301 792.852 742.089 800.286 751.694 800.286C761.217 800.286 769.024 792.852 769.024 783.762C769.024 777.057 764.873 771.279 758.924 768.716C757.395 736.85 772.103 716.007 787.017 703.25C793.172 701.968 799.513 701.317 806.061 701.317C855.864 701.317 896.557 738.408 899.427 785.24C883.274 786.699 868.856 789.559 855.491 793.325C852.208 779.916 842.499 756.313 814.323 739.059C814.323 729.87 806.516 722.436 796.911 722.436C787.284 722.436 779.6 729.889 779.6 739.059C779.6 748.149 787.284 755.583 796.911 755.583C800.092 755.583 803.087 754.754 805.566 753.374C829.795 768.518 836.921 788.632 839.029 798.451C823.268 803.972 809.139 810.382 795.753 816.435C786.624 820.576 777.865 824.52 769.603 827.734C746.22 836.923 724.675 842.425 704.97 838.855C705.156 820.675 702.47 771.575 669.296 741.819C670.928 733.458 678.054 713.346 709.018 696.821C711.703 698.458 714.885 699.483 718.437 699.483C727.96 699.483 735.747 692.029 735.747 682.86C735.747 673.691 727.96 666.257 718.437 666.257C709.122 666.257 701.5 673.317 701.044 682.032C670.928 698.004 659.113 718.019 654.506 731.25C639.303 722.613 619.576 717.467 594.108 718.196C590.927 713.701 585.638 710.762 579.586 710.762C569.96 710.762 562.173 718.196 562.173 727.385C562.173 736.455 569.981 743.909 579.586 743.909C586.32 743.909 592.187 740.241 595.078 734.819C676.712 733.084 686.834 804.308 687.598 832.96C672.291 825.151 657.584 810.282 643.166 785.417C644.88 782.834 645.851 779.818 645.851 776.603C645.851 767.414 638.063 759.98 628.458 759.98C618.936 759.98 611.149 767.434 611.149 776.603C611.149 785.516 618.543 792.852 627.86 793.127C647.959 828.108 669.606 846.013 692.865 852.994C693.258 853.172 693.629 853.27 694.125 853.368C694.62 853.546 695.075 853.645 695.57 853.723C721.143 860.526 747.686 854.276 776.254 843.076C785.281 839.585 794.039 835.542 803.19 831.421C832.17 818.309 864.766 803.519 910.15 801.212Z" fill="#2E82DB"/>
<mask id="mask1_84_6" style="mask-type:luminance" maskUnits="userSpaceOnUse" x="844" y="787" width="91" height="92">
<path d="M844.793 787.488H934.686V878.352H844.793V787.488Z" fill="white"/>
</mask>
<g mask="url(#mask1_84_6)">
<mask id="mask2_84_6" style="mask-type:luminance" maskUnits="userSpaceOnUse" x="843" y="782" width="103" height="117">
<path d="M900.709 782.459L945.286 808.35L887.613 898.78L843.037 872.889L900.709 782.459Z" fill="white"/>
</mask>
<g mask="url(#mask2_84_6)">
<mask id="mask3_84_6" style="mask-type:luminance" maskUnits="userSpaceOnUse" x="848" y="790" width="85" height="87">
<path d="M932.144 801.212L906.924 790.643C906.555 790.505 906.041 790.584 905.834 790.899L867.928 834.242C867.515 834.754 867.7 835.444 868.3 835.72L883.854 841.636C884.494 841.852 884.66 842.701 884.185 843.174L849.068 875.059C848.635 875.473 848.676 876.163 849.234 876.499C849.523 876.656 849.916 876.656 850.226 876.537L926.989 836.055C927.71 835.661 927.647 834.655 926.88 834.379L905.254 826.788C904.552 826.531 904.386 825.683 904.944 825.19L932.397 802.77C932.91 802.317 932.811 801.508 932.144 801.212Z" fill="white"/>
</mask>
<g mask="url(#mask3_84_6)">
<path d="M900.648 782.913L944.709 808.509L887.262 898.584L843.223 872.989L900.648 782.913Z" fill="white"/>
</g>
</g>
</g>
</g>
<defs>
<filter id="filter0_d_84_6" x="0" y="0" width="1991" height="1901" filterUnits="userSpaceOnUse" color-interpolation-filters="sRGB">
<feFlood flood-opacity="0" result="BackgroundImageFix"/>
<feColorMatrix in="SourceAlpha" type="matrix" values="0 0 0 0 0 0 0 0 0 0 0 0 0 0 0 0 0 0 127 0" result="hardAlpha"/>
<feOffset dy="4"/>
<feGaussianBlur stdDeviation="2"/>
<feComposite in2="hardAlpha" operator="out"/>
<feColorMatrix type="matrix" values="0 0 0 0 0 0 0 0 0 0 0 0 0 0 0 0 0 0 0.25 0"/>
<feBlend mode="normal" in2="BackgroundImageFix" result="effect1_dropShadow_84_6"/>
<feBlend mode="normal" in="SourceGraphic" in2="effect1_dropShadow_84_6" result="shape"/>
</filter>
</defs>
</svg>
